<svg width="20" height="20" viewBox="0 0 20 20" fill="none" xmlns="http://www.w3.org/2000/svg">
<path d="M15.0882 9.16671C14.5778 9.16671 14.1091 8.99744 13.7315 8.71879C13.6065 8.62765 13.4945 8.52608 13.3929 8.4115C13.2913 8.52348 13.1794 8.62504 13.057 8.71619C12.6794 8.99744 12.208 9.16671 11.695 9.16671C11.1846 9.16671 10.7184 9.00004 10.3408 8.70056C10.2158 8.63025 10.1012 8.52608 9.99708 8.4115C9.89291 8.52608 9.77833 8.63025 9.65333 8.70056C9.27572 9.00004 8.80958 9.16671 8.29916 9.16671C7.79135 9.16671 7.3226 9.00004 6.94499 8.70056C6.81999 8.63025 6.70541 8.52608 6.60385 8.4115C6.49968 8.52608 6.38249 8.63025 6.25749 8.70056C5.88249 9.00004 5.39291 9.14327 4.90619 9.16671C4.90567 9.16671 4.90541 9.16671 4.90489 9.16671C4.79916 9.16671 4.69265 9.15889 4.58926 9.14587C3.14864 8.95317 2.467 7.25525 3.23744 6.0365L4.73041 3.6753C4.86322 3.46304 5.10046 3.33337 5.35385 3.33337H14.6455C14.8981 3.33337 15.1351 3.46301 15.2679 3.6753L16.7601 6.0365C17.5335 7.25785 16.8486 8.95317 15.4033 9.14587C15.3018 9.15889 15.1976 9.14327 15.0908 9.16671C15.0908 9.16671 15.0908 9.16671 15.0882 9.16671ZM14.3643 4.58337H5.6351L4.29421 6.70577C4.14343 6.94275 4.12911 7.23702 4.23536 7.48962C4.33744 7.72921 4.52234 7.87504 4.75385 7.90629C4.80619 7.9141 4.85749 7.91671 4.90489 7.91671C5.21322 7.91671 5.48406 7.7839 5.67416 7.57296C5.91114 7.31254 6.22624 7.1615 6.60385 7.1615C6.95541 7.1615 7.29395 7.31254 7.53093 7.57296C7.72103 7.7839 7.99187 7.91671 8.29916 7.91671C8.60906 7.91671 8.85645 7.7839 9.06999 7.57296C9.30697 7.31254 9.64291 7.1615 9.99708 7.1615C10.3512 7.1615 10.6872 7.31254 10.9242 7.57296C11.1143 7.7839 11.3877 7.91671 11.695 7.91671C12.0023 7.91671 12.2731 7.7839 12.4632 7.57296C12.7002 7.31254 13.0361 7.1615 13.3903 7.1615C13.7419 7.1615 14.0804 7.30994 14.3174 7.57296C14.5101 7.7839 14.7835 7.91671 15.0882 7.91671C15.1403 7.91671 15.1898 7.9141 15.2419 7.90629C15.4762 7.87504 15.6611 7.72921 15.7627 7.48962C15.8695 7.21619 15.8565 6.94535 15.7054 6.70577L14.3643 4.58337ZM14.583 12.0834V9.95837C14.7471 9.98702 14.9163 10 15.0882 10C15.2341 10 15.3747 9.98962 15.5127 9.97139C15.6012 9.95837 15.7288 9.93754 15.833 9.9115V15C15.833 15.9193 15.0856 16.6667 14.1663 16.6667H5.83301C4.9127 16.6667 4.16635 15.9193 4.16635 15V9.9115C4.26713 9.93754 4.37103 9.95837 4.47807 9.97139H4.48119C4.61817 9.98962 4.76088 10 4.90489 10C5.07937 10 5.24968 9.98442 5.41635 9.95837V12.0834H14.583ZM14.583 13.3334H5.41635V15C5.41635 15.2292 5.60385 15.4167 5.83301 15.4167H14.1663C14.3955 15.4167 14.583 15.2292 14.583 15V13.3334Z" fill="#000000"/>
</svg>
